<?xml version="1.0" encoding="iso-8859-1"?>
<!DOCTYPE svg PUBLIC "-//W3C//DTD SVG 1.1//EN" "http://www.w3.org/Graphics/SVG/1.1/DTD/svg11.dtd">
<svg xmlns="http://www.w3.org/2000/svg" xml:space="preserve" viewBox="0 0 494.839 494.839">
  <path d="M150.298 151.627c.325-2.945-1.147-5.758-3.733-7.197l-40.167-22.164c35.005-40.762 86.446-65.35 141.021-65.35 102.523 0 185.927 83.404 185.927 185.928 0 13.717 11.112 24.847 24.843 24.847 13.719 0 24.849-11.13 24.849-24.847 0-129.926-105.711-235.619-235.619-235.619-67.177 0-130.896 29.115-175.138 78.111L53.565 51.45c-1.402-2.588-4.237-4.062-7.182-3.736-2.925.322-5.368 2.361-6.208 5.192L.299 188.67c-.76 2.537-.046 5.307 1.844 7.212 1.861 1.862 4.642 2.588 7.2 1.813l135.75-39.891c2.845-.803 4.88-3.282 5.205-6.177zm342.399 147.346c-1.863-1.877-4.645-2.589-7.2-1.826l-135.75 39.888c-2.847.839-4.883 3.283-5.205 6.196-.327 2.928 1.145 5.759 3.733 7.182l40.167 22.176c-35.007 40.75-86.448 65.338-141.023 65.338-102.521 0-185.925-83.404-185.925-185.928 0-13.717-11.112-24.848-24.845-24.848-13.719 0-24.849 11.131-24.849 24.848 0 129.926 105.714 235.615 235.619 235.615 67.177 0 130.879-29.117 175.138-78.112l18.716 33.889c1.402 2.591 4.237 4.06 7.181 3.754 2.926-.341 5.37-2.362 6.209-5.208l39.877-135.75c.759-2.556.045-5.307-1.843-7.214z"/>
  <path d="M165.216 247.42c0 45.405 36.799 82.203 82.203 82.203 45.391 0 82.206-36.798 82.206-82.203 0-45.389-36.814-82.209-82.206-82.209-45.404 0-82.203 36.821-82.203 82.209z"/>
</svg>